<svg version="1" xmlns="http://www.w3.org/2000/svg" width="6666.667" height="6666.667" viewBox="0 0 5000.000000 5000.000000"><path d="M2424.5 1c-117.7 3.9-227.4 14.6-337.5 33-396 66-766.7 225-1088.5 466.9-137.7 103.4-264.3 221-379 351.6-337.1 384.2-547.6 860.9-604 1367.8-9.8 88.1-14.1 160.9-15.2 254.2-3.1 277.6 39.6 551.9 126.5 814 107.7 324.4 282.3 624.7 512.1 881 55.2 61.5 130.1 136.4 191.6 191.6 347.4 311.6 773.1 519.4 1229.5 600.3 112.1 19.9 215.1 31 340.5 36.8 35.6 1.7 163.4 1.7 199 0 70.7-3.3 125.4-7.5 185.5-14.3 514.4-58.2 997.1-275.4 1384.5-622.8 63.3-56.9 138.6-132.4 195.6-196.1 196.1-219.7 352.9-473.4 460.4-745.5 91.4-231 148-476.6 167-724 5.4-71.2 7-114.1 7-195.5s-1.6-124.3-7-195.5c-42-546.6-263.5-1063.8-631.4-1474-55.2-61.5-130.1-136.4-191.6-191.6C3822.1 327.3 3396.4 119.5 2940 38.6 2828.8 18.9 2726.1 7.7 2602.5 2c-29.2-1.4-146.5-2-178-1zm-884.7 1950.2l-.3 137.3-137.2.3-137.3.2v-275h275l-.2 137.2zm2195.2.3V2089H1814v-275h1921v137.5zM1540 2500v137h-275v-274h275v137zm2195 0v137H1814v-274h1921v137zm-2195.2 548.7l.2 137.3h-275v-275l137.3.2 137.2.3.3 137.2zm2195.2-.2V3186H1814v-275h1921v137.5z"/></svg>